<svg id="Layer_1" data-name="Layer 1" xmlns="http://www.w3.org/2000/svg" viewBox="0 0 587.8 243.17"><defs><style>.cls-1{fill:#ffe05d;}.cls-2{fill:#161c21;}</style></defs><rect class="cls-1" x="12.62" y="9.56" width="562.57" height="224.05" rx="30.91"/><path class="cls-2" d="M109.28,42.65v60.62H97.12V77.47h-26v25.8H59V42.65H71.15V67.57h26V42.65Z"/><path class="cls-2" d="M121,66.1A21.33,21.33,0,0,1,129,57.41a21.08,21.08,0,0,1,11.16-3,19.59,19.59,0,0,1,9.42,2.18A19,19,0,0,1,156,62V55.16h12.24v48.11H156v-7a18,18,0,0,1-6.47,5.6,19.76,19.76,0,0,1-9.51,2.22A20.49,20.49,0,0,1,129,100.92,21.87,21.87,0,0,1,121,92.11,28.3,28.3,0,0,1,118.13,79,27.81,27.81,0,0,1,121,66.1Zm33.22,5.51a12.27,12.27,0,0,0-4.69-4.86,12.52,12.52,0,0,0-6.34-1.69,12.22,12.22,0,0,0-10.9,6.47A15.14,15.14,0,0,0,130.55,79a15.71,15.71,0,0,0,1.78,7.6,12.85,12.85,0,0,0,4.69,5,11.9,11.9,0,0,0,6.21,1.74,12.53,12.53,0,0,0,6.34-1.7,12.27,12.27,0,0,0,4.69-4.86,15.58,15.58,0,0,0,1.74-7.6A15.6,15.6,0,0,0,154.26,71.61Z"/><path class="cls-2" d="M198.77,56.59a19.56,19.56,0,0,1,9.42-2.22,21.1,21.1,0,0,1,11.16,3,21.42,21.42,0,0,1,7.9,8.64,27.82,27.82,0,0,1,2.91,13,28.3,28.3,0,0,1-2.91,13.07,21.84,21.84,0,0,1-7.9,8.81,20.64,20.64,0,0,1-11.16,3.13,19.54,19.54,0,0,1-9.34-2.17,20,20,0,0,1-6.55-5.48v29.79H180.14v-71H192.3V62.1A18.36,18.36,0,0,1,198.77,56.59ZM216,71.53a12.3,12.3,0,0,0-4.69-4.82A12.55,12.55,0,0,0,205,65.06a12.13,12.13,0,0,0-6.21,1.69,12.48,12.48,0,0,0-4.69,4.91,16.92,16.92,0,0,0,0,15.11,12.52,12.52,0,0,0,4.69,4.9,12.15,12.15,0,0,0,7.49,1.63,11.47,11.47,0,0,0,3.06-.72,12.68,12.68,0,0,0,6.64-5.9A15.49,15.49,0,0,0,217.74,79,15,15,0,0,0,216,71.53Z"/><path class="cls-2" d="M257.64,56.59a19.58,19.58,0,0,1,9.43-2.22,21.1,21.1,0,0,1,11.16,3,21.49,21.49,0,0,1,7.9,8.64A27.82,27.82,0,0,1,289,79a28.3,28.3,0,0,1-2.91,13.07,21.92,21.92,0,0,1-7.9,8.81,20.64,20.64,0,0,1-11.16,3.13,19.49,19.49,0,0,1-9.34-2.17,19.87,19.87,0,0,1-6.55-5.48v29.79H239v-71h12.16V62.1A18.32,18.32,0,0,1,257.64,56.59Zm17.2,14.94a12.3,12.3,0,0,0-4.69-4.82,12.56,12.56,0,0,0-6.3-1.65,12.13,12.13,0,0,0-6.21,1.69A12.46,12.46,0,0,0,253,71.66a16.92,16.92,0,0,0,0,15.11,12.5,12.5,0,0,0,4.68,4.9,12.2,12.2,0,0,0,7.5,1.63,11.56,11.56,0,0,0,3.06-.72,12.68,12.68,0,0,0,6.64-5.9A15.6,15.6,0,0,0,276.62,79,15.14,15.14,0,0,0,274.84,71.53Z"/><path class="cls-2" d="M343.92,55.16,314.13,126H301.2l10.42-24L292.34,55.16H306l12.42,33.6L331,55.16Z"/><path class="cls-2" d="M413,70.53a16.89,16.89,0,0,1-7.21,6.86A26.28,26.28,0,0,1,393.42,80H383.26v23.28H371.1V42.65h22.32a27,27,0,0,1,12,2.43,16.93,16.93,0,0,1,7.43,6.69A19.64,19.64,0,0,1,413,70.53Zm-12.63-2.65a8.49,8.49,0,0,0,2.43-6.47q0-8.86-9.9-8.86h-9.64V70.18h9.64Q397.94,70.18,400.37,67.88Z"/><path class="cls-2" d="M423.68,66.1a21.33,21.33,0,0,1,7.91-8.69,21,21,0,0,1,11.15-3,19.63,19.63,0,0,1,9.43,2.18A19,19,0,0,1,458.64,62V55.16h12.24v48.11H458.64v-7a18.06,18.06,0,0,1-6.47,5.6,19.76,19.76,0,0,1-9.51,2.22,20.44,20.44,0,0,1-11.07-3.13,21.87,21.87,0,0,1-7.91-8.81A28.3,28.3,0,0,1,420.77,79,27.81,27.81,0,0,1,423.68,66.1Zm33.22,5.51a12.27,12.27,0,0,0-4.69-4.86,12.52,12.52,0,0,0-6.34-1.69A12.22,12.22,0,0,0,435,71.53,15.14,15.14,0,0,0,433.19,79a15.71,15.71,0,0,0,1.78,7.6,12.85,12.85,0,0,0,4.69,5,11.9,11.9,0,0,0,6.21,1.74,12.53,12.53,0,0,0,6.34-1.7,12.27,12.27,0,0,0,4.69-4.86,15.58,15.58,0,0,0,1.74-7.6A15.6,15.6,0,0,0,456.9,71.61Z"/><path class="cls-2" d="M528.8,55.16,499,126H486.08l10.42-24L477.22,55.16h13.63l12.42,33.6,12.59-33.6Z"/><path class="cls-2" d="M277.49,200.52a107.89,107.89,0,0,1-90.21-48.87,6,6,0,1,1,10-6.62A95.79,95.79,0,0,0,365.6,130.45a6,6,0,1,1,11,4.81A108.41,108.41,0,0,1,277.49,200.52Z"/></svg>