<svg id="Layer_1" data-name="Layer 1" xmlns="http://www.w3.org/2000/svg" viewBox="0 0 587.8 214.28"><defs><style>.cls-1{fill:#161c21;}</style></defs><path class="cls-1" d="M72.82,12.62V85.2H58.27V54.31H27.17V85.2H12.62V12.62H27.17V42.46h31.1V12.62Z"/><path class="cls-1" d="M86.91,40.69a25.64,25.64,0,0,1,9.47-10.4,25.23,25.23,0,0,1,13.36-3.64A23.48,23.48,0,0,1,121,29.25a23,23,0,0,1,7.75,6.55V27.59h14.66V85.2H128.77V76.78a21.62,21.62,0,0,1-7.75,6.7,23.67,23.67,0,0,1-11.38,2.66,24.42,24.42,0,0,1-13.26-3.75,26.2,26.2,0,0,1-9.47-10.55,33.93,33.93,0,0,1-3.48-15.65A33.39,33.39,0,0,1,86.91,40.69Zm39.78,6.61a14.69,14.69,0,0,0-5.62-5.83,15,15,0,0,0-7.59-2,14.68,14.68,0,0,0-7.48,2,14.89,14.89,0,0,0-5.57,5.77,18.1,18.1,0,0,0-2.13,9,18.71,18.71,0,0,0,2.13,9.1,15.36,15.36,0,0,0,5.62,6,14.22,14.22,0,0,0,7.43,2.08,15,15,0,0,0,7.59-2,14.75,14.75,0,0,0,5.62-5.83,18.63,18.63,0,0,0,2.08-9.1A18.61,18.61,0,0,0,126.69,47.3Z"/><path class="cls-1" d="M180,29.31a23.5,23.5,0,0,1,11.29-2.66,25.26,25.26,0,0,1,13.36,3.64,25.67,25.67,0,0,1,9.46,10.35,33.28,33.28,0,0,1,3.49,15.55,33.93,33.93,0,0,1-3.49,15.65,26.17,26.17,0,0,1-9.46,10.55,24.64,24.64,0,0,1-13.36,3.75,23.27,23.27,0,0,1-11.18-2.6A23.94,23.94,0,0,1,172.24,77v35.67H157.68V27.59h14.56v8.32A22,22,0,0,1,180,29.31Zm20.59,17.88A14.77,14.77,0,0,0,195,41.42a15,15,0,0,0-7.54-2,14.58,14.58,0,0,0-7.44,2,15,15,0,0,0-5.61,5.88,18.36,18.36,0,0,0-2.13,9,18.38,18.38,0,0,0,2.13,9A15.08,15.08,0,0,0,180,71.32a14.63,14.63,0,0,0,9,2,13.55,13.55,0,0,0,3.67-.87,15.19,15.19,0,0,0,7.95-7.06,18.64,18.64,0,0,0,2.13-9.15A18.1,18.1,0,0,0,200.57,47.19Z"/><path class="cls-1" d="M250.49,29.31a23.44,23.44,0,0,1,11.28-2.66,25.26,25.26,0,0,1,13.36,3.64,25.6,25.6,0,0,1,9.46,10.35,33.16,33.16,0,0,1,3.49,15.55,33.81,33.81,0,0,1-3.49,15.65,26.1,26.1,0,0,1-9.46,10.55,24.64,24.64,0,0,1-13.36,3.75,23.27,23.27,0,0,1-11.18-2.6A24,24,0,0,1,242.74,77v35.67H228.18V27.59h14.56v8.32A21.9,21.9,0,0,1,250.49,29.31Zm20.59,17.88a14.81,14.81,0,0,0-13.16-7.75,14.55,14.55,0,0,0-7.43,2,15,15,0,0,0-5.62,5.88,18.36,18.36,0,0,0-2.13,9,18.38,18.38,0,0,0,2.13,9,15,15,0,0,0,5.62,5.88,14.6,14.6,0,0,0,9,2,13.57,13.57,0,0,0,3.66-.87,15.25,15.25,0,0,0,8-7.06,18.64,18.64,0,0,0,2.13-9.15A18.1,18.1,0,0,0,271.08,47.19Z"/><path class="cls-1" d="M353.8,27.59l-35.67,84.85H302.64l12.47-28.7L292,27.59h16.33l14.87,40.24L338.3,27.59Z"/><path class="cls-1" d="M436.52,46a20.32,20.32,0,0,1-8.63,8.21q-5.88,3.12-14.82,3.12H400.9V85.2H386.34V12.62h26.73a32.32,32.32,0,0,1,14.35,2.91,20.28,20.28,0,0,1,8.89,8,22.52,22.52,0,0,1,3,11.55A22.7,22.7,0,0,1,436.52,46Zm-15.13-3.18c1.94-1.83,2.91-4.42,2.91-7.74q0-10.6-11.85-10.61H400.9V45.58h11.55Q418.48,45.58,421.39,42.82Z"/><path class="cls-1" d="M449.31,40.69a25.55,25.55,0,0,1,9.46-10.4,25.26,25.26,0,0,1,13.36-3.64,23.55,23.55,0,0,1,11.29,2.6,23,23,0,0,1,7.74,6.55V27.59h14.67V85.2H491.16V76.78a21.58,21.58,0,0,1-7.74,6.7A23.71,23.71,0,0,1,472,86.14a24.47,24.47,0,0,1-13.26-3.75,26.1,26.1,0,0,1-9.46-10.55,33.81,33.81,0,0,1-3.49-15.65A33.27,33.27,0,0,1,449.31,40.69Zm39.77,6.61a14.66,14.66,0,0,0-5.61-5.83,15,15,0,0,0-7.59-2,14.63,14.63,0,0,0-13.05,7.75,18.1,18.1,0,0,0-2.14,9,18.71,18.71,0,0,0,2.14,9.1,15.34,15.34,0,0,0,5.61,6,14.23,14.23,0,0,0,7.44,2.08,15,15,0,0,0,7.59-2,14.73,14.73,0,0,0,5.61-5.83,18.63,18.63,0,0,0,2.08-9.1A18.61,18.61,0,0,0,489.08,47.3Z"/><path class="cls-1" d="M575.18,27.59l-35.66,84.85H524l12.48-28.7L513.42,27.59h16.32l14.87,40.24,15.08-40.24Z"/><path class="cls-1" d="M274.25,201.66a129.18,129.18,0,0,1-108-58.53,7.2,7.2,0,1,1,12-7.92,114.81,114.81,0,0,0,96,52.06c45.61,0,87-27.29,105.5-69.52a7.2,7.2,0,0,1,13.19,5.77C372.17,171,325.58,201.66,274.25,201.66Z"/></svg>